<svg xmlns="http://www.w3.org/2000/svg" width="720" height="345" fill="none"><rect width="720" height="345" fill="#F5FBFF" rx="20"/><rect width="33" height="33" x="655" y="28" fill="#F4F7FE" rx="7"/><g clip-path="url(#a)"><path fill="#4318FF" d="M666.4 42.2h.2c.77 0 1.4.63 1.4 1.4v7c0 .77-.63 1.4-1.4 1.4h-.2c-.77 0-1.4-.63-1.4-1.4v-7c0-.77.63-1.4 1.4-1.4ZM672 38c.77 0 1.4.63 1.4 1.4v11.2c0 .77-.63 1.4-1.4 1.4-.77 0-1.4-.63-1.4-1.4V39.4c0-.77.63-1.4 1.4-1.4Zm5.6 8c.77 0 1.4.63 1.4 1.4v3.2c0 .77-.63 1.4-1.4 1.4-.77 0-1.4-.63-1.4-1.4v-3.2c0-.77.63-1.4 1.4-1.4Z"/></g><rect width="34.961" height="58" x="35" y="226" fill="#E9EDF7" rx="8"/><rect width="34.961" height="142" x="90.961" y="142" fill="#E9EDF7" rx="8"/><rect width="34.961" height="98" x="146.921" y="186" fill="#E9EDF7" rx="8"/><rect width="34.961" height="112" x="202.882" y="172" fill="#E9EDF7" rx="8"/><rect width="34.961" height="90" x="258.843" y="194" fill="#E9EDF7" rx="8"/><rect width="34.961" height="161" x="314.803" y="123" fill="#4318FF" rx="8"/><rect width="34.961" height="78" x="370.764" y="206" fill="#E9EDF7" rx="8"/><rect width="34.961" height="142" x="426.725" y="142" fill="#E9EDF7" rx="8"/><rect width="34.961" height="39" x="482.686" y="245" fill="#E9EDF7" rx="8"/><rect width="34.961" height="112" x="538.646" y="172" fill="#E9EDF7" rx="8"/><rect width="34.961" height="63" x="594.606" y="221" fill="#E9EDF7" rx="8"/><rect width="34.961" height="98" x="650.567" y="186" fill="#E9EDF7" rx="8"/><path stroke="#4318FF" stroke-dasharray="7 6" d="M35 123.5h633"/><path fill="#4318FF" d="M679.132 129.044v-10.536h.816v10.536h-.816Zm.504-.9c-.608 0-1.144-.108-1.608-.324a2.578 2.578 0 0 1-1.08-.936c-.256-.4-.388-.868-.396-1.404h1.272c0 .304.068.584.204.84.144.248.348.448.612.6.272.144.604.216.996.216.336 0 .624-.056.864-.168.248-.112.436-.264.564-.456.128-.2.192-.428.192-.684 0-.288-.064-.524-.192-.708a1.508 1.508 0 0 0-.54-.48 4.156 4.156 0 0 0-.78-.336l-.936-.312c-.68-.224-1.184-.508-1.512-.852-.32-.344-.48-.792-.48-1.344 0-.472.108-.88.324-1.224.224-.352.54-.624.948-.816.408-.2.884-.3 1.428-.3.552 0 1.028.1 1.428.3.408.2.728.476.96.828.232.352.352.764.36 1.236h-1.272c0-.216-.06-.428-.18-.636a1.272 1.272 0 0 0-.504-.504c-.216-.136-.488-.204-.816-.204a1.694 1.694 0 0 0-.744.132 1.135 1.135 0 0 0-.504.42c-.12.184-.18.404-.18.66s.056.464.168.624c.112.152.268.284.468.396.208.112.452.216.732.312.28.088.588.188.924.3.408.136.776.304 1.104.504.328.192.584.444.768.756.192.304.288.696.288 1.176 0 .416-.108.804-.324 1.164-.216.36-.536.656-.96.888-.424.224-.956.336-1.596.336Zm5.182-.144v-7.044l-1.572.456v-.936l2.016-.876h.78v8.4h-1.224Zm3.514 0 3.132-7.368h-4.428V119.6h5.664v.876L689.592 128h-1.26Zm7.939.144c-.544 0-1.012-.104-1.404-.312a2.567 2.567 0 0 1-.912-.84 2.915 2.915 0 0 1-.408-1.14h1.116c.08.408.26.724.54.948.288.216.648.324 1.08.324.4 0 .748-.116 1.044-.348.304-.24.544-.6.72-1.08.184-.488.292-1.1.324-1.836v-.192c-.12.24-.292.46-.516.66-.216.2-.476.36-.78.48a2.69 2.69 0 0 1-.996.18c-.464 0-.904-.108-1.32-.324a2.692 2.692 0 0 1-.996-.948c-.248-.408-.372-.884-.372-1.428 0-.488.116-.948.348-1.38.24-.432.572-.78.996-1.044.432-.272.94-.408 1.524-.408.608 0 1.12.116 1.536.348.424.224.76.528 1.008.912.256.384.44.816.552 1.296.112.48.168.972.168 1.476 0 .92-.128 1.732-.384 2.436-.256.696-.628 1.24-1.116 1.632-.48.392-1.064.588-1.752.588Zm.072-4.176c.336 0 .64-.076.912-.228.272-.152.484-.36.636-.624.16-.264.24-.56.24-.888 0-.344-.08-.644-.24-.9a1.562 1.562 0 0 0-.636-.612 1.944 1.944 0 0 0-.924-.216c-.328 0-.628.076-.9.228a1.583 1.583 0 0 0-.624.612 1.73 1.73 0 0 0-.228.9c0 .344.076.648.228.912.152.256.36.456.624.6.272.144.576.216.912.216Z"/><path fill="#A3AED0" d="M45.03 307.144c-.52 0-.968-.096-1.344-.288a2.12 2.12 0 0 1-.876-.864c-.208-.376-.312-.824-.312-1.344h1.212c0 .272.044.516.132.732.088.216.224.388.408.516.192.12.444.18.756.18.304 0 .548-.06.732-.18.184-.12.316-.28.396-.48.08-.208.12-.444.12-.708V298.6h1.2v6.108c0 .776-.216 1.376-.648 1.8-.432.424-1.024.636-1.776.636Zm5.887 0c-.488 0-.896-.084-1.224-.252a1.778 1.778 0 0 1-.72-.696c-.16-.288-.24-.6-.24-.936 0-.4.1-.744.3-1.032.208-.288.504-.508.888-.66.384-.152.844-.228 1.38-.228h1.56c0-.368-.048-.672-.144-.912a1.052 1.052 0 0 0-.456-.54c-.2-.12-.46-.18-.78-.18-.352 0-.652.084-.9.252-.248.168-.404.416-.468.744h-1.2c.048-.424.192-.784.432-1.08.24-.296.544-.524.912-.684.376-.16.784-.24 1.224-.24.568 0 1.04.1 1.416.3.384.2.672.484.864.852.2.36.3.792.3 1.296V307h-1.056l-.096-1.032a1.99 1.99 0 0 1-.312.468c-.12.136-.264.26-.432.372-.16.104-.344.184-.552.24-.208.064-.44.096-.696.096Zm.228-.972c.248 0 .476-.052.684-.156a1.74 1.74 0 0 0 .528-.432c.152-.184.268-.388.348-.612.08-.232.124-.476.132-.732v-.06h-1.416c-.344 0-.62.044-.828.132a.96.96 0 0 0-.456.36.887.887 0 0 0-.144.504c0 .2.044.376.132.528.088.144.22.26.396.348.176.08.384.12.624.12ZM55.4 307v-6.156h1.08l.072 1.008c.184-.352.448-.632.792-.84a2.36 2.36 0 0 1 1.224-.312c.472 0 .88.096 1.224.288.344.184.612.468.804.852.192.376.288.848.288 1.416V307h-1.2v-3.624c0-.544-.128-.952-.384-1.224-.248-.28-.6-.42-1.056-.42-.304 0-.584.072-.84.216a1.513 1.513 0 0 0-.588.636c-.144.272-.216.608-.216 1.008V307h-1.2Zm43.222 0v-8.4h5.232v.984h-4.032v2.724h3.372v.96h-3.372V307h-1.2Zm8.67.144c-.584 0-1.1-.132-1.548-.396a2.815 2.815 0 0 1-1.032-1.128c-.248-.48-.372-1.04-.372-1.68 0-.648.124-1.212.372-1.692a2.77 2.77 0 0 1 1.044-1.14c.448-.272.964-.408 1.548-.408.6 0 1.112.136 1.536.408.424.264.748.62.972 1.068a3.206 3.206 0 0 1 .324 1.728c0 .088-.004.188-.012.3h-4.908v-.84h3.732c-.016-.528-.18-.936-.492-1.224-.312-.296-.7-.444-1.164-.444-.32 0-.616.076-.888.228-.264.152-.48.376-.648.672-.16.288-.24.656-.24 1.104v.336c0 .456.08.844.24 1.164.16.312.372.548.636.708.272.16.568.24.888.24.4 0 .72-.08.96-.24.24-.168.416-.392.528-.672h1.212c-.104.36-.28.684-.528.972a2.655 2.655 0 0 1-.924.684c-.36.168-.772.252-1.236.252Zm7.261 0c-.344 0-.652-.048-.924-.144a2.674 2.674 0 0 1-.696-.396 2.222 2.222 0 0 1-.468-.528l-.12.924h-1.08v-8.64h1.2v3.432c.192-.328.464-.592.816-.792.36-.2.78-.3 1.26-.3.576 0 1.08.14 1.512.42.44.28.78.66 1.02 1.14.248.48.372 1.032.372 1.656 0 .616-.124 1.168-.372 1.656-.24.488-.576.872-1.008 1.152-.432.28-.936.42-1.512.42Zm-.204-1.044c.36 0 .68-.088.96-.264a1.9 1.9 0 0 0 .66-.756c.168-.328.252-.712.252-1.152 0-.44-.084-.824-.252-1.152-.16-.328-.38-.58-.66-.756-.28-.184-.6-.276-.96-.276a1.75 1.75 0 0 0-.984.276c-.28.176-.5.428-.66.756-.152.328-.228.712-.228 1.152 0 .44.076.824.228 1.152.16.32.38.572.66.756.28.176.608.264.984.264Zm39.868.9v-8.4h1.416l2.796 5.688 2.784-5.688h1.416v8.4h-1.2v-6.288l-2.544 5.136h-.924l-2.544-5.112V307h-1.2Zm11.888.144c-.488 0-.896-.084-1.224-.252a1.778 1.778 0 0 1-.72-.696c-.16-.288-.24-.6-.24-.936 0-.4.1-.744.3-1.032.208-.288.504-.508.888-.66.384-.152.844-.228 1.38-.228h1.56c0-.368-.048-.672-.144-.912a1.052 1.052 0 0 0-.456-.54c-.2-.12-.46-.18-.78-.18-.352 0-.652.084-.9.252-.248.168-.404.416-.468.744h-1.2c.048-.424.192-.784.432-1.08.24-.296.544-.524.912-.684.376-.16.784-.24 1.224-.24.568 0 1.04.1 1.416.3.384.2.672.484.864.852.2.36.3.792.3 1.296V307h-1.056l-.096-1.032a1.99 1.99 0 0 1-.312.468c-.12.136-.264.26-.432.372-.16.104-.344.184-.552.24-.208.064-.44.096-.696.096Zm.228-.972c.248 0 .476-.052.684-.156a1.74 1.74 0 0 0 .528-.432c.152-.184.268-.388.348-.612.08-.232.124-.476.132-.732v-.06h-1.416c-.344 0-.62.044-.828.132a.96.96 0 0 0-.456.36.887.887 0 0 0-.144.504c0 .2.044.376.132.528.088.144.22.26.396.348.176.08.384.12.624.12Zm4.255.828v-6.156h1.08l.096 1.14a2.235 2.235 0 0 1 1.344-1.128c.312-.104.66-.156 1.044-.156v1.272h-.54c-.24 0-.472.032-.696.096a1.522 1.522 0 0 0-.588.3c-.168.136-.3.324-.396.564-.096.24-.144.544-.144.912V307h-1.2Zm39.657 0 3.096-8.4h1.308l3.072 8.4h-1.272l-2.472-6.96-2.472 6.96h-1.26Zm1.404-2.076.324-.96h3.96l.324.96h-4.608Zm6.993 4.716v-8.796h1.08l.12.936a2.64 2.64 0 0 1 .468-.528c.192-.168.42-.3.684-.396.272-.104.584-.156.936-.156.576 0 1.08.144 1.512.432.432.28.768.664 1.008 1.152.248.48.372 1.032.372 1.656 0 .616-.124 1.168-.372 1.656-.248.48-.588.86-1.02 1.14-.432.272-.932.408-1.5.408-.48 0-.9-.092-1.26-.276a2.132 2.132 0 0 1-.828-.792v3.564h-1.2Zm3.084-3.54c.36 0 .68-.088.96-.264a1.9 1.9 0 0 0 .66-.756c.168-.328.252-.712.252-1.152 0-.44-.084-.824-.252-1.152-.16-.328-.38-.58-.66-.756-.28-.184-.6-.276-.96-.276a1.75 1.75 0 0 0-.984.276c-.28.176-.5.428-.66.756-.152.328-.228.712-.228 1.152 0 .44.076.824.228 1.152.16.32.38.572.66.756.28.176.608.264.984.264Zm4.281.9v-6.156h1.08l.096 1.14a2.235 2.235 0 0 1 1.344-1.128c.312-.104.66-.156 1.044-.156v1.272h-.54c-.24 0-.472.032-.696.096a1.522 1.522 0 0 0-.588.3c-.168.136-.3.324-.396.564-.096.24-.144.544-.144.912V307h-1.2Zm39.214 0v-8.4h1.416l2.796 5.688 2.784-5.688h1.416v8.4h-1.2v-6.288l-2.544 5.136h-.924l-2.544-5.112V307h-1.2Zm11.888.144c-.488 0-.896-.084-1.224-.252a1.778 1.778 0 0 1-.72-.696c-.16-.288-.24-.6-.24-.936 0-.4.1-.744.3-1.032.208-.288.504-.508.888-.66.384-.152.844-.228 1.38-.228h1.56c0-.368-.048-.672-.144-.912a1.052 1.052 0 0 0-.456-.54c-.2-.12-.46-.18-.78-.18-.352 0-.652.084-.9.252-.248.168-.404.416-.468.744h-1.2c.048-.424.192-.784.432-1.08.24-.296.544-.524.912-.684.376-.16.784-.24 1.224-.24.568 0 1.04.1 1.416.3.384.2.672.484.864.852.2.36.3.792.3 1.296V307h-1.056l-.096-1.032a1.99 1.99 0 0 1-.312.468c-.12.136-.264.26-.432.372-.16.104-.344.184-.552.24-.208.064-.44.096-.696.096Zm.228-.972c.248 0 .476-.052.684-.156a1.74 1.74 0 0 0 .528-.432c.152-.184.268-.388.348-.612.08-.232.124-.476.132-.732v-.06h-1.416c-.344 0-.62.044-.828.132a.96.96 0 0 0-.456.36.887.887 0 0 0-.144.504c0 .2.044.376.132.528.088.144.22.26.396.348.176.08.384.12.624.12Zm4.787 3.468 1.44-3.312h-.348l-2.376-5.484h1.296l1.884 4.488 1.908-4.488h1.248l-3.804 8.796h-1.248Zm100.834-2.496c-.52 0-.968-.096-1.344-.288a2.12 2.12 0 0 1-.876-.864c-.208-.376-.312-.824-.312-1.344h1.212c0 .272.044.516.132.732.088.216.224.388.408.516.192.12.444.18.756.18.304 0 .548-.06.732-.18.184-.12.316-.28.396-.48.08-.208.12-.444.12-.708V298.6h1.2v6.108c0 .776-.216 1.376-.648 1.8-.432.424-1.024.636-1.776.636Zm6.139 0c-.472 0-.88-.092-1.224-.276a1.903 1.903 0 0 1-.804-.84c-.184-.384-.276-.86-.276-1.428v-3.756h1.2v3.624c0 .552.124.968.372 1.248.248.272.6.408 1.056.408.312 0 .588-.072.828-.216a1.53 1.53 0 0 0 .588-.624c.152-.28.228-.624.228-1.032v-3.408h1.2V307h-1.08l-.072-1.008c-.184.36-.452.644-.804.852-.344.2-.748.3-1.212.3Zm4.582-.144v-8.64h1.2V307h-1.2Zm39.793 0 3.096-8.4h1.308l3.072 8.4h-1.272l-2.472-6.96-2.472 6.96h-1.26Zm1.404-2.076.324-.96h3.96l.324.96h-4.608Zm9.119 2.22c-.472 0-.88-.092-1.224-.276a1.903 1.903 0 0 1-.804-.84c-.184-.384-.276-.86-.276-1.428v-3.756h1.2v3.624c0 .552.124.968.372 1.248.248.272.6.408 1.056.408.312 0 .588-.072.828-.216a1.53 1.53 0 0 0 .588-.624c.152-.28.228-.624.228-1.032v-3.408h1.2V307h-1.08l-.072-1.008c-.184.36-.452.644-.804.852-.344.2-.748.3-1.212.3Zm7.067 2.64c-.568 0-1.064-.072-1.488-.216-.424-.136-.756-.348-.996-.636-.232-.288-.348-.64-.348-1.056 0-.224.048-.448.144-.672a1.89 1.89 0 0 1 .468-.636c.216-.2.508-.38.876-.54l.696.54c-.416.16-.696.344-.84.552a1.145 1.145 0 0 0-.216.636c0 .24.072.44.216.6.152.16.352.28.6.36.256.08.548.12.876.12.328 0 .608-.044.84-.132.24-.088.424-.212.552-.372a.828.828 0 0 0 .192-.552.885.885 0 0 0-.288-.684c-.192-.168-.568-.268-1.128-.3a11.61 11.61 0 0 1-1.176-.132 5.042 5.042 0 0 1-.816-.204c-.216-.08-.4-.168-.552-.264a3.046 3.046 0 0 1-.384-.3v-.276l1.212-1.224.996.324-1.332 1.212.252-.552.24.168c.088.048.2.092.336.132.136.04.32.08.552.12.24.032.552.064.936.096.552.04.996.136 1.332.288.336.152.58.36.732.624.16.256.24.568.24.936 0 .344-.096.672-.288.984-.192.312-.488.564-.888.756-.4.2-.916.3-1.548.3Zm-.012-4.668c-.504 0-.936-.096-1.296-.288a2.05 2.05 0 0 1-.816-.792 2.31 2.31 0 0 1-.276-1.128c0-.416.092-.788.276-1.116.192-.328.464-.592.816-.792.36-.2.792-.3 1.296-.3.52 0 .956.1 1.308.3.36.2.632.464.816.792.184.328.276.7.276 1.116 0 .416-.092.792-.276 1.128a2.05 2.05 0 0 1-.816.792c-.352.192-.788.288-1.308.288Zm0-.96c.4 0 .716-.104.948-.312.232-.216.348-.528.348-.936 0-.408-.116-.716-.348-.924-.232-.208-.548-.312-.948-.312-.384 0-.7.104-.948.312-.24.208-.36.516-.36.924 0 .408.12.72.36.936.24.208.556.312.948.312Zm1.02-2.364-.288-.948h2.484v.828l-2.196.12Zm40.884 5.352c-.608 0-1.144-.108-1.608-.324a2.578 2.578 0 0 1-1.08-.936c-.256-.4-.388-.868-.396-1.404h1.272c0 .304.068.584.204.84.144.248.348.448.612.6.272.144.604.216.996.216.336 0 .624-.056.864-.168.248-.112.436-.264.564-.456.128-.2.192-.428.192-.684 0-.288-.064-.524-.192-.708a1.508 1.508 0 0 0-.54-.48 4.156 4.156 0 0 0-.78-.336l-.936-.312c-.68-.224-1.184-.508-1.512-.852-.32-.344-.48-.792-.48-1.344 0-.472.108-.88.324-1.224.224-.352.54-.624.948-.816.408-.2.884-.3 1.428-.3.552 0 1.028.1 1.428.3.408.2.728.476.96.828.232.352.352.764.36 1.236h-1.272c0-.216-.06-.428-.18-.636a1.272 1.272 0 0 0-.504-.504c-.216-.136-.488-.204-.816-.204a1.694 1.694 0 0 0-.744.132 1.135 1.135 0 0 0-.504.42c-.12.184-.18.404-.18.66s.056.464.168.624c.112.152.268.284.468.396.208.112.452.216.732.312.28.088.588.188.924.3.408.136.776.304 1.104.504.328.192.584.444.768.756.192.304.288.696.288 1.176 0 .416-.108.804-.324 1.164-.216.36-.536.656-.96.888-.424.224-.956.336-1.596.336Zm6.754 0c-.584 0-1.1-.132-1.548-.396a2.815 2.815 0 0 1-1.032-1.128c-.248-.48-.372-1.04-.372-1.68 0-.648.124-1.212.372-1.692a2.77 2.77 0 0 1 1.044-1.14c.448-.272.964-.408 1.548-.408.6 0 1.112.136 1.536.408.424.264.748.62.972 1.068a3.206 3.206 0 0 1 .324 1.728c0 .088-.004.188-.012.3h-4.908v-.84h3.732c-.016-.528-.18-.936-.492-1.224-.312-.296-.7-.444-1.164-.444-.32 0-.616.076-.888.228-.264.152-.48.376-.648.672-.16.288-.24.656-.24 1.104v.336c0 .456.08.844.24 1.164.16.312.372.548.636.708.272.16.568.24.888.24.4 0 .72-.08.96-.24.24-.168.416-.392.528-.672h1.212c-.104.36-.28.684-.528.972a2.655 2.655 0 0 1-.924.684c-.36.168-.772.252-1.236.252Zm3.973 2.496v-8.796h1.08l.12.936a2.64 2.64 0 0 1 .468-.528c.192-.168.42-.3.684-.396.272-.104.584-.156.936-.156.576 0 1.08.144 1.512.432.432.28.768.664 1.008 1.152.248.48.372 1.032.372 1.656 0 .616-.124 1.168-.372 1.656-.248.48-.588.86-1.02 1.14-.432.272-.932.408-1.5.408-.48 0-.9-.092-1.26-.276a2.132 2.132 0 0 1-.828-.792v3.564h-1.2Zm3.084-3.54c.36 0 .68-.088.96-.264a1.9 1.9 0 0 0 .66-.756c.168-.328.252-.712.252-1.152 0-.44-.084-.824-.252-1.152-.16-.328-.38-.58-.66-.756-.28-.184-.6-.276-.96-.276a1.75 1.75 0 0 0-.984.276c-.28.176-.5.428-.66.756-.152.328-.228.712-.228 1.152 0 .44.076.824.228 1.152.16.32.38.572.66.756.28.176.608.264.984.264Zm43.453 1.044c-.792 0-1.492-.18-2.1-.54a3.885 3.885 0 0 1-1.416-1.524c-.336-.656-.504-1.416-.504-2.28 0-.856.168-1.608.504-2.256a3.865 3.865 0 0 1 1.416-1.536c.608-.368 1.308-.552 2.1-.552.808 0 1.512.184 2.112.552.608.368 1.08.88 1.416 1.536.336.648.504 1.4.504 2.256 0 .864-.168 1.624-.504 2.28a3.773 3.773 0 0 1-1.416 1.524c-.6.36-1.304.54-2.112.54Zm0-1.068c.568 0 1.06-.132 1.476-.396.424-.264.752-.64.984-1.128.232-.488.348-1.072.348-1.752 0-.68-.116-1.264-.348-1.752a2.535 2.535 0 0 0-.984-1.116c-.416-.264-.908-.396-1.476-.396-.56 0-1.052.132-1.476.396-.416.256-.74.628-.972 1.116-.232.488-.348 1.072-.348 1.752 0 .68.116 1.264.348 1.752.232.488.556.864.972 1.128.424.264.916.396 1.476.396Zm7.976 1.068a2.986 2.986 0 0 1-1.56-.408 2.93 2.93 0 0 1-1.08-1.128c-.256-.48-.384-1.036-.384-1.668 0-.648.128-1.212.384-1.692a2.908 2.908 0 0 1 1.08-1.14 2.986 2.986 0 0 1 1.56-.408c.736 0 1.352.196 1.848.588.496.384.812.908.948 1.572h-1.248a1.33 1.33 0 0 0-.552-.828c-.288-.2-.624-.3-1.008-.3a1.7 1.7 0 0 0-.912.252 1.745 1.745 0 0 0-.648.744c-.152.32-.228.72-.228 1.2 0 .352.044.668.132.948.096.272.224.5.384.684.16.184.348.324.564.42.216.096.452.144.708.144.256 0 .492-.044.708-.132.216-.088.396-.216.54-.384.152-.176.256-.38.312-.612h1.248a2.629 2.629 0 0 1-.96 1.56c-.496.392-1.108.588-1.836.588Zm6.374-.144c-.384 0-.716-.06-.996-.18a1.31 1.31 0 0 1-.648-.6c-.152-.28-.228-.66-.228-1.14v-3.216h-1.056v-1.02h1.056l.156-1.56h1.044v1.56h1.728v1.02h-1.728v3.228c0 .344.072.58.216.708.144.12.392.18.744.18h.732V307h-1.02Zm37.491 0v-8.4h1.2l4.284 6.444V298.6h1.2v8.4h-1.2l-4.284-6.444V307h-1.2Zm10.921.144a3.033 3.033 0 0 1-1.548-.396 2.872 2.872 0 0 1-1.056-1.128c-.256-.488-.384-1.052-.384-1.692 0-.648.128-1.212.384-1.692a2.85 2.85 0 0 1 1.068-1.128 2.963 2.963 0 0 1 1.548-.408c.584 0 1.1.136 1.548.408.456.264.812.64 1.068 1.128.256.48.384 1.044.384 1.692 0 .64-.132 1.204-.396 1.692-.256.48-.612.856-1.068 1.128-.448.264-.964.396-1.548.396Zm0-1.032c.328 0 .628-.08.9-.24.272-.168.488-.412.648-.732.16-.328.24-.732.24-1.212 0-.488-.08-.892-.24-1.212a1.597 1.597 0 0 0-.636-.732 1.62 1.62 0 0 0-.888-.252 1.68 1.68 0 0 0-.9.252c-.272.16-.488.404-.648.732-.16.32-.24.724-.24 1.212 0 .48.08.884.24 1.212.16.32.372.564.636.732.272.16.568.24.888.24Zm5.642.888-2.304-6.156h1.26l1.764 5.004 1.764-5.004h1.236L620.038 307h-1.416Zm39.308 0v-8.4h2.46c.976 0 1.78.172 2.412.516.64.344 1.112.832 1.416 1.464.312.624.468 1.368.468 2.232 0 .864-.156 1.608-.468 2.232a3.226 3.226 0 0 1-1.416 1.452c-.632.336-1.436.504-2.412.504h-2.46Zm1.2-1.008h1.212c.776 0 1.388-.128 1.836-.384.456-.256.78-.62.972-1.092.2-.48.3-1.048.3-1.704 0-.664-.1-1.236-.3-1.716a2.148 2.148 0 0 0-.972-1.104c-.448-.256-1.06-.384-1.836-.384h-1.212v6.384Zm9.439 1.152c-.584 0-1.1-.132-1.548-.396a2.815 2.815 0 0 1-1.032-1.128c-.248-.48-.372-1.04-.372-1.68 0-.648.124-1.212.372-1.692a2.77 2.77 0 0 1 1.044-1.14c.448-.272.964-.408 1.548-.408.6 0 1.112.136 1.536.408.424.264.748.62.972 1.068a3.206 3.206 0 0 1 .324 1.728c0 .088-.004.188-.012.3h-4.908v-.84h3.732c-.016-.528-.18-.936-.492-1.224-.312-.296-.7-.444-1.164-.444-.32 0-.616.076-.888.228-.264.152-.48.376-.648.672-.16.288-.24.656-.24 1.104v.336c0 .456.08.844.24 1.164.16.312.372.548.636.708.272.16.568.24.888.24.4 0 .72-.08.96-.24.24-.168.416-.392.528-.672h1.212c-.104.36-.28.684-.528.972a2.655 2.655 0 0 1-.924.684c-.36.168-.772.252-1.236.252Zm6.77 0a2.986 2.986 0 0 1-1.56-.408 2.93 2.93 0 0 1-1.08-1.128c-.256-.48-.384-1.036-.384-1.668 0-.648.128-1.212.384-1.692a2.908 2.908 0 0 1 1.08-1.14 2.986 2.986 0 0 1 1.56-.408c.736 0 1.352.196 1.848.588.496.384.812.908.948 1.572h-1.248a1.33 1.33 0 0 0-.552-.828c-.288-.2-.624-.3-1.008-.3a1.7 1.7 0 0 0-.912.252 1.745 1.745 0 0 0-.648.744c-.152.32-.228.72-.228 1.2 0 .352.044.668.132.948.096.272.224.5.384.684.16.184.348.324.564.42.216.096.452.144.708.144.256 0 .492-.044.708-.132.216-.088.396-.216.54-.384.152-.176.256-.38.312-.612h1.248a2.629 2.629 0 0 1-.96 1.56c-.496.392-1.108.588-1.836.588Zm-350.485 0c-.52 0-.968-.096-1.344-.288a2.12 2.12 0 0 1-.876-.864c-.208-.376-.312-.824-.312-1.344h1.212c0 .272.044.516.132.732.088.216.224.388.408.516.192.12.444.18.756.18.304 0 .548-.06.732-.18.184-.12.316-.28.396-.48.08-.208.12-.444.12-.708V298.6h1.2v6.108c0 .776-.216 1.376-.648 1.8-.432.424-1.024.636-1.776.636Zm6.139 0c-.472 0-.88-.092-1.224-.276a1.903 1.903 0 0 1-.804-.84c-.184-.384-.276-.86-.276-1.428v-3.756h1.2v3.624c0 .552.124.968.372 1.248.248.272.6.408 1.056.408.312 0 .588-.072.828-.216a1.53 1.53 0 0 0 .588-.624c.152-.28.228-.624.228-1.032v-3.408h1.2V307h-1.08l-.072-1.008c-.184.36-.452.644-.804.852-.344.2-.748.3-1.212.3Zm4.583-.144v-6.156h1.08l.072 1.008c.184-.352.448-.632.792-.84a2.36 2.36 0 0 1 1.224-.312c.472 0 .88.096 1.224.288.344.184.612.468.804.852.192.376.288.848.288 1.416V307h-1.2v-3.624c0-.544-.128-.952-.384-1.224-.248-.28-.6-.42-1.056-.42-.304 0-.584.072-.84.216a1.513 1.513 0 0 0-.588.636c-.144.272-.216.608-.216 1.008V307h-1.2ZM34.608 45v-8.652H31.71V35.2h7.21v1.148h-2.912V45h-1.4Zm7.342.168a3.51 3.51 0 0 1-1.792-.462 3.374 3.374 0 0 1-1.246-1.288c-.299-.56-.448-1.204-.448-1.932 0-.747.154-1.395.462-1.946.308-.56.728-.994 1.26-1.302a3.51 3.51 0 0 1 1.792-.462c.672 0 1.27.154 1.792.462.523.308.933.737 1.232 1.288.308.55.462 1.2.462 1.946 0 .747-.154 1.395-.462 1.946-.299.55-.714.98-1.246 1.288-.532.308-1.134.462-1.806.462Zm0-1.204a1.96 1.96 0 0 0 1.792-1.106c.196-.373.294-.835.294-1.386 0-.55-.093-1.008-.28-1.372a1.958 1.958 0 0 0-.756-.84 1.934 1.934 0 0 0-1.022-.28c-.373 0-.719.093-1.036.28a2.046 2.046 0 0 0-.77.84c-.187.364-.28.821-.28 1.372 0 .55.093 1.013.28 1.386a2.1 2.1 0 0 0 .756.826c.317.187.658.28 1.022.28ZM49.47 45c-.448 0-.836-.07-1.163-.21a1.529 1.529 0 0 1-.756-.7c-.177-.327-.266-.77-.266-1.33v-3.626h-1.217v-1.19h1.218l.167-1.764h1.232v1.764h2.002v1.19h-2.002v3.64c0 .401.084.677.252.826.169.14.458.21.869.21h.812V45h-1.149Zm4.82.168c-.58 0-1.06-.098-1.443-.294-.382-.196-.667-.457-.854-.784a2.185 2.185 0 0 1-.28-1.078c0-.467.122-.863.364-1.19.243-.336.588-.593 1.036-.77.448-.177.985-.266 1.61-.266h1.834c0-.41-.06-.751-.182-1.022a1.232 1.232 0 0 0-.546-.602c-.233-.14-.532-.21-.896-.21-.42 0-.779.103-1.078.308-.298.196-.485.49-.56.882h-1.4c.056-.495.224-.915.504-1.26.29-.355.658-.625 1.106-.812a3.524 3.524 0 0 1 1.428-.294c.663 0 1.218.117 1.666.35.448.233.784.565 1.008.994.234.42.35.924.35 1.512V45H56.74l-.112-1.19a3.358 3.358 0 0 1-.364.532c-.14.168-.308.313-.504.434a2.222 2.222 0 0 1-.658.28 2.754 2.754 0 0 1-.812.112Zm.265-1.134c.299 0 .57-.06.812-.182.243-.121.448-.285.616-.49.178-.215.308-.453.392-.714.094-.27.145-.546.154-.826v-.042h-1.666c-.401 0-.728.051-.98.154-.242.093-.42.224-.532.392a1.035 1.035 0 0 0-.168.588c0 .233.052.434.154.602.112.159.271.285.476.378.206.093.453.14.742.14Zm4.91.966V34.92h1.4V45h-1.4Zm9.62.168c-.719 0-1.349-.126-1.89-.378a3.008 3.008 0 0 1-1.26-1.092c-.299-.467-.448-1.013-.448-1.638h1.47c.009.355.093.681.252.98.168.29.406.523.714.7.317.168.704.252 1.162.252.392 0 .728-.065 1.008-.196.289-.13.508-.308.658-.532.149-.233.224-.5.224-.798 0-.345-.08-.63-.238-.854a1.764 1.764 0 0 0-.644-.546c-.262-.15-.57-.28-.924-.392-.346-.112-.71-.233-1.092-.364-.775-.252-1.354-.579-1.736-.98-.374-.401-.56-.924-.56-1.568 0-.55.13-1.027.392-1.428a2.59 2.59 0 0 1 1.092-.952c.476-.233 1.036-.35 1.68-.35.634 0 1.19.117 1.666.35.476.233.849.555 1.12.966.27.41.406.891.406 1.442h-1.484c0-.252-.066-.5-.196-.742a1.483 1.483 0 0 0-.588-.588c-.262-.159-.584-.238-.966-.238a1.939 1.939 0 0 0-.854.154 1.324 1.324 0 0 0-.588.49c-.14.215-.21.471-.21.77 0 .299.06.541.182.728.13.177.317.331.56.462.242.13.522.252.84.364.326.103.686.22 1.078.35.485.159.914.355 1.288.588.382.224.681.518.896.882.224.355.336.812.336 1.372 0 .485-.126.938-.378 1.358-.252.42-.626.765-1.12 1.036-.495.261-1.111.392-1.848.392Zm4.66 2.912V37.944h1.26l.14 1.092a3.07 3.07 0 0 1 .56-.602c.224-.196.49-.355.798-.476a3.088 3.088 0 0 1 1.106-.182c.672 0 1.26.163 1.764.49.514.327.91.77 1.19 1.33.29.55.434 1.18.434 1.89s-.144 1.344-.434 1.904c-.289.55-.69.985-1.204 1.302-.504.317-1.092.476-1.764.476-.55 0-1.036-.107-1.456-.322a2.564 2.564 0 0 1-.994-.924v4.158h-1.4Zm3.626-4.13a2.086 2.086 0 0 0 1.918-1.176c.196-.373.294-.807.294-1.302s-.098-.924-.294-1.288a2.082 2.082 0 0 0-.784-.868 2.017 2.017 0 0 0-1.134-.322 2.11 2.11 0 0 0-1.162.322 2.116 2.116 0 0 0-.77.868c-.186.364-.28.793-.28 1.288s.094.929.28 1.302c.187.373.444.663.77.868.336.205.724.308 1.162.308Zm8.173 1.218c-.672 0-1.27-.154-1.792-.462a3.275 3.275 0 0 1-1.232-1.288c-.29-.55-.434-1.19-.434-1.918 0-.747.145-1.395.434-1.946.299-.56.71-.994 1.232-1.302.523-.317 1.13-.476 1.82-.476.69 0 1.284.154 1.778.462.495.308.878.719 1.148 1.232.27.504.406 1.064.406 1.68 0 .093-.004.196-.014.308 0 .103-.005.22-.014.35h-5.768v-.994h4.396c-.028-.588-.224-1.045-.588-1.372-.364-.336-.816-.504-1.358-.504-.383 0-.733.089-1.05.266-.317.168-.574.42-.77.756-.186.327-.28.742-.28 1.246v.392c0 .523.094.966.28 1.33.196.355.453.625.77.812.318.177.663.266 1.036.266.448 0 .817-.098 1.106-.294a1.75 1.75 0 0 0 .644-.798h1.4c-.121.43-.326.817-.616 1.162-.29.336-.648.602-1.078.798-.42.196-.905.294-1.456.294ZM90.18 45v-7.056h1.26l.084 1.204a2.5 2.5 0 0 1 .952-.994c.41-.252.882-.378 1.414-.378.56 0 1.04.112 1.442.336.4.224.714.565.938 1.022.224.448.336 1.013.336 1.694V45h-1.4v-4.032c0-.653-.145-1.148-.434-1.484-.29-.336-.71-.504-1.26-.504a1.84 1.84 0 0 0-.98.266 1.83 1.83 0 0 0-.7.756c-.168.336-.252.747-.252 1.232V45h-1.4Zm10.848 0c-.448 0-.835-.07-1.162-.21a1.528 1.528 0 0 1-.756-.7c-.177-.327-.266-.77-.266-1.33v-3.626h-1.218v-1.19h1.218l.168-1.764h1.232v1.764h2.002v1.19h-2.002v3.64c0 .401.084.677.252.826.168.14.458.21.868.21h.812V45h-1.148Z"/><path fill="#1B2559" d="M39.974 86.958V57.072h2.244v29.886h-2.244Zm1.428-2.55c-1.723 0-3.264-.295-4.624-.884-1.337-.59-2.402-1.45-3.196-2.584-.77-1.133-1.167-2.505-1.19-4.114h4.862c.023.703.193 1.337.51 1.904a3.75 3.75 0 0 0 1.428 1.36c.612.317 1.349.476 2.21.476.703 0 1.315-.102 1.836-.306.544-.227.964-.555 1.258-.986.317-.43.476-.963.476-1.598 0-.68-.17-1.247-.51-1.7-.317-.453-.77-.839-1.36-1.156a10.91 10.91 0 0 0-2.006-.884l-2.346-.782c-1.904-.657-3.355-1.496-4.352-2.516-.997-1.043-1.496-2.403-1.496-4.08 0-1.405.34-2.607 1.02-3.604.703-1.02 1.666-1.802 2.89-2.346 1.224-.544 2.618-.816 4.182-.816 1.61 0 3.015.283 4.216.85 1.224.544 2.188 1.337 2.89 2.38.725 1.043 1.11 2.267 1.156 3.672h-4.93a2.971 2.971 0 0 0-.476-1.53 2.9 2.9 0 0 0-1.156-1.122c-.498-.272-1.1-.408-1.802-.408-.59-.023-1.122.068-1.598.272a2.576 2.576 0 0 0-1.156.85c-.272.385-.408.884-.408 1.496 0 .544.125 1.02.374 1.428.272.385.657.714 1.156.986.499.272 1.077.544 1.734.816.68.25 1.428.51 2.244.782 1.202.408 2.3.895 3.298 1.462.997.544 1.79 1.258 2.38 2.142.59.884.884 2.04.884 3.468a6.834 6.834 0 0 1-.952 3.502c-.634 1.065-1.575 1.927-2.822 2.584s-2.788.986-4.624.986Zm19.861 0c-1.813 0-3.343-.329-4.59-.986-1.224-.68-2.21-1.575-2.958-2.686a12.08 12.08 0 0 1-1.598-3.706 17.04 17.04 0 0 1-.51-4.148c0-2.675.374-4.987 1.122-6.936.748-1.95 1.825-3.457 3.23-4.522 1.428-1.088 3.14-1.632 5.134-1.632 1.678 0 3.083.329 4.216.986 1.156.635 2.052 1.485 2.686 2.55a7.845 7.845 0 0 1 1.122 3.4h-4.25c-.204-1.02-.634-1.802-1.292-2.346-.634-.544-1.473-.816-2.516-.816a4.01 4.01 0 0 0-2.55.884c-.725.59-1.292 1.473-1.7 2.652-.408 1.179-.646 2.663-.714 4.454v.17a5.624 5.624 0 0 1 1.428-1.598 7.318 7.318 0 0 1 2.074-1.122 7.498 7.498 0 0 1 2.448-.408c1.315 0 2.55.317 3.706.952a7.37 7.37 0 0 1 2.788 2.686c.726 1.156 1.088 2.527 1.088 4.114a8.04 8.04 0 0 1-1.054 4.012c-.702 1.224-1.688 2.21-2.958 2.958-1.246.725-2.697 1.088-4.352 1.088Zm-.272-3.944c.816 0 1.542-.17 2.176-.51a3.857 3.857 0 0 0 1.496-1.394c.363-.612.544-1.303.544-2.074 0-.816-.181-1.519-.544-2.108a3.8 3.8 0 0 0-1.53-1.394c-.634-.34-1.36-.51-2.176-.51-.816 0-1.552.181-2.21.544a4.027 4.027 0 0 0-1.53 1.428c-.362.59-.544 1.258-.544 2.006 0 .77.182 1.462.544 2.074.386.59.907 1.065 1.564 1.428.658.34 1.394.51 2.21.51Zm19.463 3.944c-1.632 0-3.116-.295-4.454-.884-1.314-.59-2.368-1.417-3.162-2.482-.77-1.065-1.156-2.3-1.156-3.706 0-.975.16-1.859.476-2.652a6.971 6.971 0 0 1 1.394-2.108 6.078 6.078 0 0 1 2.176-1.394c-1.065-.476-1.915-1.156-2.55-2.04-.612-.884-.918-1.881-.918-2.992 0-1.11.306-2.153.918-3.128.635-.975 1.553-1.757 2.754-2.346 1.224-.59 2.732-.884 4.522-.884 1.791 0 3.298.295 4.522.884 1.224.59 2.131 1.371 2.72 2.346.612.975.918 2.017.918 3.128a5.104 5.104 0 0 1-.952 2.992c-.634.884-1.473 1.564-2.516 2.04.862.34 1.587.816 2.176 1.428a5.875 5.875 0 0 1 1.394 2.074c.34.793.51 1.677.51 2.652 0 1.405-.396 2.64-1.19 3.706-.77 1.065-1.824 1.893-3.162 2.482-1.314.59-2.788.884-4.42.884Zm0-3.842c1.406 0 2.471-.34 3.196-1.02.726-.68 1.088-1.541 1.088-2.584 0-1.156-.385-2.063-1.156-2.72-.748-.68-1.79-1.02-3.128-1.02-1.337 0-2.39.34-3.162 1.02-.77.657-1.156 1.564-1.156 2.72 0 1.043.363 1.904 1.088 2.584.748.68 1.825 1.02 3.23 1.02Zm0-10.71c1.156 0 2.052-.295 2.686-.884.658-.59.986-1.349.986-2.278 0-.997-.328-1.768-.986-2.312-.634-.567-1.53-.85-2.686-.85s-2.062.283-2.72.85c-.634.544-.952 1.326-.952 2.346 0 .907.318 1.655.952 2.244.658.59 1.564.884 2.72.884ZM91.15 84v-3.366a167.49 167.49 0 0 0 4.147-3.468 49.774 49.774 0 0 0 3.672-3.434c1.089-1.156 1.95-2.278 2.585-3.366.634-1.088.952-2.142.952-3.162 0-.635-.114-1.213-.34-1.734a2.819 2.819 0 0 0-1.054-1.292c-.476-.34-1.111-.51-1.904-.51-.794 0-1.462.181-2.007.544-.52.363-.917.85-1.19 1.462-.271.59-.407 1.258-.407 2.006h-4.42c.045-1.745.43-3.207 1.156-4.386.725-1.179 1.7-2.051 2.923-2.618 1.224-.59 2.584-.884 4.08-.884 1.678 0 3.083.317 4.217.952 1.156.612 2.028 1.45 2.618 2.516.612 1.065.918 2.29.918 3.672a8.43 8.43 0 0 1-.578 3.06 14.123 14.123 0 0 1-1.564 2.924 22.499 22.499 0 0 1-2.244 2.686 38.437 38.437 0 0 1-2.584 2.482 70.332 70.332 0 0 1-2.619 2.176h10.133V84H91.15Zm20.903.17c-.839 0-1.519-.25-2.04-.748a2.553 2.553 0 0 1-.782-1.87c0-.748.261-1.371.782-1.87.521-.521 1.201-.782 2.04-.782.816 0 1.485.26 2.006.782.521.499.782 1.122.782 1.87 0 .725-.261 1.349-.782 1.87-.521.499-1.19.748-2.006.748Zm13.439.238c-1.746 0-3.253-.306-4.522-.918-1.27-.635-2.267-1.485-2.992-2.55-.703-1.088-1.111-2.312-1.224-3.672h4.488c.181.907.657 1.677 1.428 2.312.77.612 1.711.918 2.822.918.816 0 1.53-.204 2.142-.612a4.02 4.02 0 0 0 1.462-1.666 5.255 5.255 0 0 0 .544-2.38c0-.93-.182-1.723-.544-2.38-.363-.68-.85-1.19-1.462-1.53-.612-.363-1.304-.544-2.074-.544-.975 0-1.825.238-2.55.714-.703.476-1.202 1.077-1.496 1.802h-4.42l2.04-13.702h13.294v4.012h-9.894l-1.02 5.236c.498-.521 1.167-.952 2.006-1.292.838-.34 1.779-.51 2.822-.51 1.292 0 2.414.227 3.366.68.974.43 1.779 1.031 2.414 1.802a7.973 7.973 0 0 1 1.428 2.618c.34.975.51 1.983.51 3.026 0 1.27-.216 2.437-.646 3.502a7.85 7.85 0 0 1-1.768 2.72 7.899 7.899 0 0 1-2.686 1.802c-1.043.408-2.199.612-3.468.612Z"/><defs><clipPath id="a"><path fill="#fff" d="M660 33h24v24h-24z"/></clipPath></defs></svg>